<svg id="Calque_2" data-name="Calque 2" xmlns="http://www.w3.org/2000/svg" viewBox="0 0 99.36 77.94"><defs><style>.cls-1{fill:#f6f4ee;}</style></defs><polygon class="cls-1" points="44.53 76.63 52.51 76.63 25.27 0 21.02 10.85 36.46 54.04 44.53 76.63"/><path class="cls-1" d="M22.81,71.39,36.46,54,36,52.87S32.1,58,25.19,66.48C16.19,75.09,9.45,71,9.45,71s-9.53-4-4.6-17.39L21.58,12.39,21,10.81S6.45,46.5,2.49,56.9C-2.17,67.18,1.15,72.28,1.15,72.28s1.47,5.11,8.49,5.63S22.81,71.39,22.81,71.39Z" transform="translate(0)"/><polygon class="cls-1" points="99.36 0.32 90.6 0.32 49.53 68.48 52.51 76.63 52.93 76.63 56.85 69.59 99.36 0.32"/><polygon class="cls-1" points="49.15 0.32 47.42 0.32 96.83 76.62 98.52 76.62 49.15 0.32"/></svg>