<svg xmlns="http://www.w3.org/2000/svg" xmlns:xlink="http://www.w3.org/1999/xlink" viewBox="0 0 67.97 105.18"><defs><style>.cls-1{fill:url(#Dégradé_sans_nom_91);}</style><linearGradient id="Dégradé_sans_nom_91" x1="42.2" y1="3.17" x2="19.42" y2="88.78" gradientUnits="userSpaceOnUse"><stop offset="0" stop-color="#fdefe5"/><stop offset="0.69" stop-color="#fa9f41"/><stop offset="0.88" stop-color="#fa9f41"/><stop offset="1" stop-color="#fa9f41"/></linearGradient></defs><g id="Calque_2" data-name="Calque 2"><g id="OBJECTS"><path class="cls-1" d="M64.08,5A13.56,13.56,0,0,0,56.15.23C47.3-1.41,37,6,29.89,11.13A88.43,88.43,0,0,0,3.76,40.54c-2.74,5-5,11-3,16.34,3.53,9.28,18,11.54,19.81,21.3.87,4.57-1.51,9-2.91,13.48s-1.33,10.28,2.69,12.63c3.87,2.26,8.76-.2,12.24-3A55.8,55.8,0,0,0,52.84,61.62c.39-6.91-.49-14.1,2-20.55C58,33,66,27.21,67.67,18.73A16.48,16.48,0,0,0,64.08,5Z"/></g></g></svg>