<svg xmlns="http://www.w3.org/2000/svg" viewBox="0 0 93.83 92.84"><defs><style>.cls-1{fill:#fa9f41;}</style></defs><g id="Calque_2" data-name="Calque 2"><g id="OBJECTS"><path class="cls-1" d="M21.78,15.44A39.22,39.22,0,0,1,9.26,8.79a78.52,78.52,0,0,1-6.49-6L0,0"/><path class="cls-1" d="M18.29,34.52a35.49,35.49,0,0,1-4.81-12,69.68,69.68,0,0,1-1-8l-.3-3.57"/><path class="cls-1" d="M62.82,28.63c-5-4.89-10.06-9.88-16.35-12.89-5.85-2.81-18.09-5.5-24.08-1.65a4.68,4.68,0,0,0-.86.7c4-.07,7.45,2.29,9.74,4.35A53.09,53.09,0,0,1,35,22.94a52.63,52.63,0,0,0,4.22,4.23,49.16,49.16,0,0,0,7.54,4.94l14.74,8.42-.24.34L45.85,33.72a49.7,49.7,0,0,1-7.79-5A55.88,55.88,0,0,1,33.67,24c-1.16-1.26-2.41-2.44-3.7-3.6-2.28-2.06-5.18-5-9.13-4.56v-.07C18,21,27.59,31.29,31,34.33c6.44,5.82,14.29,9.82,22,13.74C65.8,54.55,79.63,61.22,93.83,59.2Z"/><path class="cls-1" d="M30.83,61.31c-.35-5.06-.3-10.09-1.6-14.73-1.33-4.26-4.91-12-9.72-14a3.29,3.29,0,0,0-2-.21c2.17,2.76,2.76,6.41,2.85,9.19.05,1.78-.07,3.57-.18,5.31a47.52,47.52,0,0,0-.14,6,48.31,48.31,0,0,0,1.64,8.87l4.1,16.47-.24.12-5.08-16c-.73-2.92-2.24-5.93-2.42-9-.12-2,.71-4.47.84-6.46.11-1.71.57-3.52.51-5.25-.07-2.71-.65-6.28-2.83-8.86-3.87,2.12-6,11.52-6,15-.35,7.05,1.77,14,4.55,20.47,4.44,10.7,12,21.54,23.57,24.72A93.51,93.51,0,0,1,30.83,61.31Z"/></g></g></svg>