<svg xmlns="http://www.w3.org/2000/svg" viewBox="0 0 174.12 76.56"><defs><style>.cls-1{fill:#fa9f41;}</style></defs><g id="Calque_2" data-name="Calque 2"><g id="OBJECTS"><path class="cls-1" d="M15,5.21C8.73,12.52,3.72,21,1.4,30.46a48.6,48.6,0,0,0,.77,26,33.91,33.91,0,0,0,5.28,11,21.31,21.31,0,0,0,10.48,7A29.8,29.8,0,0,0,31,75.68c3.62-.51,7.46-1.88,9.77-4.86a12,12,0,0,0,2.12-8.32,42.78,42.78,0,0,0-.82-5.15q-.86-4.38-1.72-8.76-1.66-8.51-3.34-17c-.54-2.8-1.19-5.59-1.61-8.41-.39-2.63-.24-5.4,1.57-7.51,3.09-3.63,8.67-4.74,13.2-4.18a11.9,11.9,0,0,1,9.05,5.61c1.88,3.2,1.86,6.75,2,10.35l.87,17.51c.27,5.44.37,10.91.83,16.33a18.62,18.62,0,0,0,2.38,7.9c4,6.71,12.63,8.38,19.8,6.87,3.84-.8,7.93-2.58,10.45-5.69,2.91-3.56,2.42-8.15,1.24-12.29-3.19-11.13-6.94-22.13-10.41-33.18-.85-2.71-1.77-5.42-2.54-8.16s-1.29-5.93,0-8.68c1.77-3.75,6-5.86,9.89-6.72A24.65,24.65,0,0,1,109,3a15.67,15.67,0,0,1,9,10.11A69.11,69.11,0,0,1,119.38,20l1.6,8.84,3.12,17.19c.82,4.53,1.3,9.37,3.13,13.64a18.06,18.06,0,0,0,8.48,8.89c7.57,3.91,18.14,5,25.61.27,2.8-1.76,5.14-4.44,5.55-7.81.62-5.11-2.64-10.15-4.8-14.54l-7.8-15.83-3.84-7.8A41.21,41.21,0,0,1,147,14.8C144.32,4,158.29-.55,166.6,1.54c2.5.62,9.34,3.54,5.91,7-.34.35.19.88.53.53,2.28-2.28.59-4.86-1.68-6.33C167.7.35,163-.13,158.8.54A17.92,17.92,0,0,0,148.36,5.7c-2.87,3.14-2.92,7.21-1.54,11.08a73.25,73.25,0,0,0,3.51,7.58l3.84,7.81L162,48c2.21,4.48,5.82,10.22,3.5,15.33-1.72,3.78-5.78,6-9.63,7a27.9,27.9,0,0,1-15-.52c-4.44-1.33-8.67-3.64-11.35-7.53s-3.26-8.55-4.08-13q-1.55-8.59-3.11-17.19c-1-5.56-1.91-11.15-3-16.68-.85-4.16-2.53-8-6-10.69-6.79-5.28-17.8-6.42-25.27-2-3.12,1.86-5.45,4.72-5.68,8.45a21.14,21.14,0,0,0,1.33,7.5c.89,2.84,1.79,5.68,2.68,8.52l5.22,16.62c.9,2.85,1.79,5.7,2.69,8.54.81,2.58,1.72,5.14,2.31,7.77A11.93,11.93,0,0,1,96,68.37a11.41,11.41,0,0,1-4.25,4.28,22.17,22.17,0,0,1-14.08,3A15.73,15.73,0,0,1,67.46,70.8a16,16,0,0,1-3.58-8.26c-.32-2.14-.31-4.33-.42-6.49L63,47.16q-.42-8.62-.86-17.26c-.18-3.75.05-7.76-1.35-11.32A12.13,12.13,0,0,0,55,12.11a17,17,0,0,0-12.18-.79c-3.6,1.06-7.23,3.39-8.11,7.28a16.81,16.81,0,0,0,.36,6.84l1.62,8.27L40.08,51c.56,2.84,1.13,5.67,1.67,8.52a22,22,0,0,1,.45,4.66,10,10,0,0,1-4.52,8.47c-3.93,2.49-9,2.86-13.52,2.37a25,25,0,0,1-13.32-5.14c-3.47-2.88-5.51-6.86-7-11A48.33,48.33,0,0,1,.84,45.36,50.77,50.77,0,0,1,7,18.11,68.41,68.41,0,0,1,15.55,5.74c.31-.37-.21-.9-.53-.53Z"/></g></g></svg>